<mxfile host="app.diagrams.net" modified="2021-05-25T06:05:29.255Z" agent="5.0 (Windows NT 10.0; Win64; x64) AppleWebKit/537.36 (KHTML, like Gecko) Chrome/90.0.4430.212 Safari/537.36" etag="EuLCh2aY-9Ktlj4bqJGd" version="14.7.0" type="github">
  <diagram name="Page-1" id="13e1069c-82ec-6db2-03f1-153e76fe0fe0">
    <mxGraphModel dx="1483" dy="829" grid="1" gridSize="10" guides="1" tooltips="1" connect="1" arrows="1" fold="1" page="1" pageScale="1" pageWidth="1100" pageHeight="850" background="none" math="0" shadow="0">
      <root>
        <mxCell id="0" />
        <mxCell id="1" parent="0" />
        <mxCell id="Pb7kwNqma8EeTvHqLDVk-1" value="&lt;font style=&quot;font-size: 20px&quot;&gt;이벤트 페이지&lt;/font&gt;" style="rounded=0;whiteSpace=wrap;html=1;" parent="1" vertex="1">
          <mxGeometry x="40" y="310" width="190" height="80" as="geometry" />
        </mxCell>
        <mxCell id="ABvnFnV99FdlZ4MogWja-2" value="" style="endArrow=classic;html=1;" edge="1" parent="1">
          <mxGeometry width="50" height="50" relative="1" as="geometry">
            <mxPoint x="250" y="360" as="sourcePoint" />
            <mxPoint x="320" y="360" as="targetPoint" />
            <Array as="points">
              <mxPoint x="300" y="360" />
            </Array>
          </mxGeometry>
        </mxCell>
        <mxCell id="ABvnFnV99FdlZ4MogWja-5" value="&lt;b&gt;&lt;font style=&quot;font-size: 14px&quot;&gt;개인&lt;/font&gt;&lt;/b&gt;" style="text;html=1;strokeColor=none;fillColor=none;align=center;verticalAlign=middle;whiteSpace=wrap;rounded=0;rotation=0;" vertex="1" parent="1">
          <mxGeometry x="260" y="330" width="40" height="20" as="geometry" />
        </mxCell>
        <mxCell id="ABvnFnV99FdlZ4MogWja-8" value="각 이벤트 목록" style="rounded=1;whiteSpace=wrap;html=1;" vertex="1" parent="1">
          <mxGeometry x="330" y="320" width="120" height="60" as="geometry" />
        </mxCell>
        <mxCell id="ABvnFnV99FdlZ4MogWja-13" value="사진관 이벤트 페이지사이트로 이동" style="rounded=1;whiteSpace=wrap;html=1;" vertex="1" parent="1">
          <mxGeometry x="590" y="320" width="120" height="60" as="geometry" />
        </mxCell>
        <mxCell id="ABvnFnV99FdlZ4MogWja-16" value="" style="endArrow=classic;html=1;" edge="1" parent="1">
          <mxGeometry width="50" height="50" relative="1" as="geometry">
            <mxPoint x="470" y="360" as="sourcePoint" />
            <mxPoint x="580" y="360" as="targetPoint" />
            <Array as="points">
              <mxPoint x="520" y="360" />
            </Array>
          </mxGeometry>
        </mxCell>
        <mxCell id="ABvnFnV99FdlZ4MogWja-17" value="&lt;b&gt;&lt;font style=&quot;font-size: 14px&quot;&gt;개인 클릭시&lt;/font&gt;&lt;/b&gt;" style="text;html=1;strokeColor=none;fillColor=none;align=center;verticalAlign=middle;whiteSpace=wrap;rounded=0;rotation=0;" vertex="1" parent="1">
          <mxGeometry x="490" y="330" width="80" height="20" as="geometry" />
        </mxCell>
        <mxCell id="ABvnFnV99FdlZ4MogWja-36" style="edgeStyle=orthogonalEdgeStyle;rounded=0;orthogonalLoop=1;jettySize=auto;html=1;fontFamily=Verdana;fontSize=17;" edge="1" parent="1" source="ABvnFnV99FdlZ4MogWja-28">
          <mxGeometry relative="1" as="geometry">
            <mxPoint x="260" y="135" as="targetPoint" />
          </mxGeometry>
        </mxCell>
        <mxCell id="ABvnFnV99FdlZ4MogWja-28" value="기업" style="shape=umlActor;verticalLabelPosition=bottom;verticalAlign=top;outlineConnect=0;fontFamily=Verdana;labelPosition=center;align=center;labelBackgroundColor=none;fontStyle=1;fontSize=17;" vertex="1" parent="1">
          <mxGeometry x="120" y="90" width="55" height="90" as="geometry" />
        </mxCell>
        <mxCell id="ABvnFnV99FdlZ4MogWja-38" style="edgeStyle=orthogonalEdgeStyle;rounded=0;orthogonalLoop=1;jettySize=auto;html=1;fontFamily=Verdana;fontSize=17;" edge="1" parent="1" source="ABvnFnV99FdlZ4MogWja-37">
          <mxGeometry relative="1" as="geometry">
            <mxPoint x="390" y="300" as="targetPoint" />
          </mxGeometry>
        </mxCell>
        <mxCell id="ABvnFnV99FdlZ4MogWja-37" value="이벤트 목록작성" style="rounded=1;whiteSpace=wrap;html=1;labelBackgroundColor=none;fontFamily=Verdana;fontSize=17;" vertex="1" parent="1">
          <mxGeometry x="280" y="102.5" width="150" height="65" as="geometry" />
        </mxCell>
      </root>
    </mxGraphModel>
  </diagram>
</mxfile>
